<svg width="740" height="111" viewBox="0 0 740 111" fill="none" xmlns="http://www.w3.org/2000/svg">
<mask id="path-1-outside-1_281_39" maskUnits="userSpaceOnUse" x="0" y="20" width="235" height="71" fill="black">
<rect fill="white" y="20" width="235" height="71"/>
<path d="M69.706 22.0909L58.598 89H46.3793L24.3267 46.8878H23.804L16.7798 89H2.63352L13.7415 22.0909H26.1562L48.1108 64.1705H48.6662L55.625 22.0909H69.706ZM73.0459 89L84.1538 22.0909H129.239L127.279 33.7543H96.3399L93.7263 49.6974H122.346L120.385 61.3608H91.766L89.1524 77.3366H120.222L118.262 89H73.0459ZM147.199 89L139.162 22.0909H154.615L158.013 68.581H158.568L178.465 22.0909H191.696L196.205 68.679H196.793L215.546 22.0909H230.999L200.746 89H186.959L181.536 45.2543H181.013L160.986 89H147.199Z"/>
</mask>
<path d="M69.706 22.0909L58.598 89H46.3793L24.3267 46.8878H23.804L16.7798 89H2.63352L13.7415 22.0909H26.1562L48.1108 64.1705H48.6662L55.625 22.0909H69.706ZM73.0459 89L84.1538 22.0909H129.239L127.279 33.7543H96.3399L93.7263 49.6974H122.346L120.385 61.3608H91.766L89.1524 77.3366H120.222L118.262 89H73.0459ZM147.199 89L139.162 22.0909H154.615L158.013 68.581H158.568L178.465 22.0909H191.696L196.205 68.679H196.793L215.546 22.0909H230.999L200.746 89H186.959L181.536 45.2543H181.013L160.986 89H147.199Z" fill="black"/>
<path d="M69.706 22.0909L71.679 22.4185L72.0654 20.0909H69.706V22.0909ZM58.598 89V91H60.2934L60.571 89.3275L58.598 89ZM46.3793 89L44.6075 89.9278L45.169 91H46.3793V89ZM24.3267 46.8878L26.0985 45.96L25.537 44.8878H24.3267V46.8878ZM23.804 46.8878V44.8878H22.1099L21.8312 46.5587L23.804 46.8878ZM16.7798 89V91H18.4739L18.7526 89.329L16.7798 89ZM2.63352 89L0.660527 88.6725L0.274118 91H2.63352V89ZM13.7415 22.0909V20.0909H12.0461L11.7685 21.7634L13.7415 22.0909ZM26.1562 22.0909L27.9294 21.1658L27.3686 20.0909H26.1562V22.0909ZM48.1108 64.1705L46.3376 65.0956L46.8984 66.1705H48.1108V64.1705ZM48.6662 64.1705V66.1705H50.3626L50.6394 64.4968L48.6662 64.1705ZM55.625 22.0909V20.0909H53.9286L53.6518 21.7646L55.625 22.0909ZM69.706 22.0909L67.733 21.7634L56.625 88.6725L58.598 89L60.571 89.3275L71.679 22.4185L69.706 22.0909ZM58.598 89V87H46.3793V89V91H58.598V89ZM46.3793 89L48.151 88.0722L26.0985 45.96L24.3267 46.8878L22.5549 47.8156L44.6075 89.9278L46.3793 89ZM24.3267 46.8878V44.8878H23.804V46.8878V48.8878H24.3267V46.8878ZM23.804 46.8878L21.8312 46.5587L14.8071 88.671L16.7798 89L18.7526 89.329L25.7767 47.2168L23.804 46.8878ZM16.7798 89V87H2.63352V89V91H16.7798V89ZM2.63352 89L4.60652 89.3275L15.7145 22.4185L13.7415 22.0909L11.7685 21.7634L0.660527 88.6725L2.63352 89ZM13.7415 22.0909V24.0909H26.1562V22.0909V20.0909H13.7415V22.0909ZM26.1562 22.0909L24.3831 23.016L46.3376 65.0956L48.1108 64.1705L49.884 63.2453L27.9294 21.1658L26.1562 22.0909ZM48.1108 64.1705V66.1705H48.6662V64.1705V62.1705H48.1108V64.1705ZM48.6662 64.1705L50.6394 64.4968L57.5982 22.4172L55.625 22.0909L53.6518 21.7646L46.693 63.8441L48.6662 64.1705ZM55.625 22.0909V24.0909H69.706V22.0909V20.0909H55.625V22.0909ZM73.0459 89L71.0729 88.6725L70.6865 91H73.0459V89ZM84.1538 22.0909V20.0909H82.4585L82.1808 21.7634L84.1538 22.0909ZM129.239 22.0909L131.211 22.4224L131.603 20.0909H129.239V22.0909ZM127.279 33.7543V35.7543H128.971L129.251 34.0857L127.279 33.7543ZM96.3399 33.7543V31.7543H94.6411L94.3662 33.4307L96.3399 33.7543ZM93.7263 49.6974L91.7526 49.3739L91.3717 51.6974H93.7263V49.6974ZM122.346 49.6974L124.318 50.0289L124.71 47.6974H122.346V49.6974ZM120.385 61.3608V63.3608H122.077L122.358 61.6923L120.385 61.3608ZM91.766 61.3608V59.3608H90.0666L89.7923 61.0379L91.766 61.3608ZM89.1524 77.3366L87.1786 77.0137L86.7986 79.3366H89.1524V77.3366ZM120.222 77.3366L122.194 77.6681L122.586 75.3366H120.222V77.3366ZM118.262 89V91H119.954L120.234 89.3315L118.262 89ZM73.0459 89L75.0189 89.3275L86.1268 22.4185L84.1538 22.0909L82.1808 21.7634L71.0729 88.6725L73.0459 89ZM84.1538 22.0909V24.0909H129.239V22.0909V20.0909H84.1538V22.0909ZM129.239 22.0909L127.267 21.7594L125.306 33.4228L127.279 33.7543L129.251 34.0857L131.211 22.4224L129.239 22.0909ZM127.279 33.7543V31.7543H96.3399V33.7543V35.7543H127.279V33.7543ZM96.3399 33.7543L94.3662 33.4307L91.7526 49.3739L93.7263 49.6974L95.6999 50.021L98.3136 34.0778L96.3399 33.7543ZM93.7263 49.6974V51.6974H122.346V49.6974V47.6974H93.7263V49.6974ZM122.346 49.6974L120.373 49.366L118.413 61.0293L120.385 61.3608L122.358 61.6923L124.318 50.0289L122.346 49.6974ZM120.385 61.3608V59.3608H91.766V61.3608V63.3608H120.385V61.3608ZM91.766 61.3608L89.7923 61.0379L87.1786 77.0137L89.1524 77.3366L91.1262 77.6596L93.7398 61.6837L91.766 61.3608ZM89.1524 77.3366V79.3366H120.222V77.3366V75.3366H89.1524V77.3366ZM120.222 77.3366L118.25 77.0052L116.289 88.6685L118.262 89L120.234 89.3315L122.194 77.6681L120.222 77.3366ZM118.262 89V87H73.0459V89V91H118.262V89ZM147.199 89L145.213 89.2385L145.425 91H147.199V89ZM139.162 22.0909V20.0909H136.907L137.176 22.3294L139.162 22.0909ZM154.615 22.0909L156.61 21.9451L156.474 20.0909H154.615V22.0909ZM158.013 68.581L156.018 68.7267L156.154 70.581H158.013V68.581ZM158.568 68.581V70.581H159.888L160.407 69.3679L158.568 68.581ZM178.465 22.0909V20.0909H177.145L176.626 21.304L178.465 22.0909ZM191.696 22.0909L193.687 21.8983L193.512 20.0909H191.696V22.0909ZM196.205 68.679L194.214 68.8716L194.389 70.679H196.205V68.679ZM196.793 68.679V70.679H198.144L198.648 69.4258L196.793 68.679ZM215.546 22.0909V20.0909H214.195L213.69 21.3441L215.546 22.0909ZM230.999 22.0909L232.821 22.9149L234.098 20.0909H230.999V22.0909ZM200.746 89V91H202.036L202.568 89.824L200.746 89ZM186.959 89L184.974 89.2461L185.192 91H186.959V89ZM181.536 45.2543L183.52 45.0082L183.303 43.2543H181.536V45.2543ZM181.013 45.2543V43.2543H179.729L179.194 44.4217L181.013 45.2543ZM160.986 89V91H162.27L162.804 89.8325L160.986 89ZM147.199 89L149.185 88.7615L141.148 21.8524L139.162 22.0909L137.176 22.3294L145.213 89.2385L147.199 89ZM139.162 22.0909V24.0909H154.615V22.0909V20.0909H139.162V22.0909ZM154.615 22.0909L152.62 22.2367L156.018 68.7267L158.013 68.581L160.008 68.4352L156.61 21.9451L154.615 22.0909ZM158.013 68.581V70.581H158.568V68.581V66.581H158.013V68.581ZM158.568 68.581L160.407 69.3679L180.303 22.8778L178.465 22.0909L176.626 21.304L156.73 67.7941L158.568 68.581ZM178.465 22.0909V24.0909H191.696V22.0909V20.0909H178.465V22.0909ZM191.696 22.0909L189.705 22.2836L194.214 68.8716L196.205 68.679L198.195 68.4863L193.687 21.8983L191.696 22.0909ZM196.205 68.679V70.679H196.793V68.679V66.679H196.205V68.679ZM196.793 68.679L198.648 69.4258L217.401 22.8377L215.546 22.0909L213.69 21.3441L194.937 67.9322L196.793 68.679ZM215.546 22.0909V24.0909H230.999V22.0909V20.0909H215.546V22.0909ZM230.999 22.0909L229.176 21.2669L198.923 88.176L200.746 89L202.568 89.824L232.821 22.9149L230.999 22.0909ZM200.746 89V87H186.959V89V91H200.746V89ZM186.959 89L188.944 88.7539L183.52 45.0082L181.536 45.2543L179.551 45.5003L184.974 89.2461L186.959 89ZM181.536 45.2543V43.2543H181.013V45.2543V47.2543H181.536V45.2543ZM181.013 45.2543L179.194 44.4217L159.167 88.1675L160.986 89L162.804 89.8325L182.831 46.0868L181.013 45.2543ZM160.986 89V87H147.199V89V91H160.986V89Z" fill="white" mask="url(#path-1-outside-1_281_39)"/>
<path d="M263.634 89L274.741 22.0909H301.139C306.192 22.0909 310.341 23.0601 313.587 24.9986C316.854 26.9152 319.141 29.5833 320.447 33.0028C321.776 36.4006 322.081 40.321 321.362 44.7642C320.622 49.2292 319.01 53.1605 316.527 56.5582C314.066 59.9342 310.864 62.5696 306.922 64.4645C302.98 66.3594 298.428 67.3068 293.266 67.3068H276.44L278.303 55.9702H292.841C295.585 55.9702 297.927 55.5019 299.865 54.5653C301.825 53.607 303.383 52.2893 304.537 50.6122C305.691 48.9134 306.443 46.964 306.791 44.7642C307.161 42.5208 307.042 40.5715 306.432 38.9162C305.822 37.2609 304.7 35.9758 303.067 35.0611C301.455 34.1245 299.288 33.6562 296.565 33.6562H287.026L277.78 89H263.634ZM325.96 89L337.068 22.0909H363.466C368.519 22.0909 372.679 22.9839 375.946 24.7699C379.235 26.5559 381.543 29.0933 382.872 32.3821C384.222 35.6491 384.538 39.5043 383.819 43.9474C383.079 48.3906 381.478 52.2022 379.017 55.3821C376.577 58.562 373.397 61.0123 369.477 62.733C365.578 64.4318 361.059 65.2812 355.919 65.2812H338.244L340.204 53.9119H355.559C358.26 53.9119 360.569 53.5417 362.485 52.8011C364.402 52.0606 365.916 50.9498 367.027 49.4688C368.159 47.9877 368.9 46.1473 369.248 43.9474C369.619 41.7041 369.488 39.831 368.856 38.3281C368.225 36.8035 367.081 35.6491 365.426 34.8651C363.771 34.0592 361.593 33.6562 358.892 33.6562H349.352L340.106 89H325.96ZM367.125 58.5511L378.723 89H363.106L351.868 58.5511H367.125ZM456.543 56.4602C455.323 63.6042 452.96 69.67 449.454 74.6577C445.969 79.6454 441.711 83.4351 436.679 86.027C431.67 88.6188 426.268 89.9148 420.475 89.9148C414.398 89.9148 409.16 88.5317 404.76 85.7656C400.383 82.9995 397.214 79.0028 395.253 73.7756C393.293 68.5265 392.923 62.1993 394.143 54.794C395.319 47.6283 397.66 41.5516 401.167 36.5639C404.673 31.5544 408.953 27.7429 414.006 25.1293C419.059 22.4938 424.493 21.1761 430.309 21.1761C436.342 21.1761 441.547 22.5701 445.925 25.358C450.325 28.1458 453.494 32.1752 455.432 37.446C457.393 42.6951 457.763 49.0331 456.543 56.4602ZM442.462 54.794C443.224 50.1984 443.192 46.3433 442.364 43.2287C441.558 40.0923 440.077 37.7183 437.921 36.1065C435.765 34.4948 433.042 33.6889 429.753 33.6889C426.181 33.6889 422.903 34.5819 419.92 36.3679C416.957 38.1539 414.453 40.7457 412.405 44.1435C410.38 47.5194 408.975 51.625 408.191 56.4602C407.407 61.0777 407.428 64.9328 408.256 68.0256C409.106 71.1184 410.619 73.4598 412.797 75.0497C414.997 76.6179 417.731 77.402 420.998 77.402C424.548 77.402 427.793 76.5308 430.733 74.7884C433.696 73.0241 436.189 70.465 438.215 67.1108C440.241 63.7348 441.656 59.6293 442.462 54.794ZM488.404 89H464.359L475.467 22.0909H499.055C505.785 22.0909 511.372 23.4631 515.815 26.2074C520.28 28.9517 523.427 32.883 525.257 38.0014C527.086 43.098 527.413 49.1856 526.237 56.2642C525.104 63.1032 522.85 68.973 519.474 73.8736C516.098 78.7524 511.775 82.4986 506.504 85.1122C501.233 87.7041 495.2 89 488.404 89ZM480.531 76.8793H489.221C493.425 76.8793 497.106 76.0952 500.264 74.527C503.444 72.9588 506.046 70.5412 508.072 67.2741C510.119 64.0071 511.568 59.8253 512.417 54.7287C513.223 49.8935 513.168 45.973 512.254 42.9673C511.361 39.9399 509.629 37.7292 507.059 36.3352C504.489 34.9195 501.113 34.2116 496.931 34.2116H487.62L480.531 76.8793ZM586.489 22.0909H600.635L593.447 65.5426C592.641 70.4214 590.779 74.6903 587.861 78.3494C584.942 82.0085 581.229 84.8617 576.72 86.9091C572.212 88.9347 567.18 89.9474 561.626 89.9474C556.072 89.9474 551.39 88.9347 547.578 86.9091C543.766 84.8617 541.011 82.0085 539.312 78.3494C537.614 74.6903 537.167 70.4214 537.973 65.5426L545.16 22.0909H559.307L552.283 64.3338C551.891 66.8821 552.087 69.1473 552.871 71.1293C553.676 73.1113 555.005 74.6686 556.856 75.8011C558.708 76.9337 560.995 77.5 563.717 77.5C566.462 77.5 568.944 76.9337 571.166 75.8011C573.409 74.6686 575.25 73.1113 576.687 71.1293C578.147 69.1473 579.072 66.8821 579.464 64.3338L586.489 22.0909ZM670.116 45.5156H656.002C656.046 43.6425 655.806 41.9872 655.284 40.5497C654.761 39.0904 653.977 37.849 652.931 36.8253C651.908 35.8016 650.655 35.0284 649.174 34.5057C647.693 33.9612 646.027 33.6889 644.176 33.6889C640.604 33.6889 637.326 34.5819 634.342 36.3679C631.358 38.1539 628.842 40.7457 626.795 44.1435C624.748 47.5194 623.332 51.6032 622.548 56.3949C621.786 61.0123 621.829 64.8783 622.679 67.9929C623.528 71.1075 625.031 73.4598 627.187 75.0497C629.365 76.6179 632.077 77.402 635.322 77.402C637.326 77.402 639.232 77.1515 641.039 76.6506C642.847 76.1278 644.492 75.3873 645.973 74.429C647.475 73.4489 648.782 72.2618 649.893 70.8679C651.026 69.474 651.908 67.8949 652.539 66.1307H666.751C665.858 69.2017 664.464 72.1638 662.569 75.017C660.696 77.8703 658.376 80.4186 655.61 82.6619C652.844 84.8835 649.697 86.6477 646.169 87.9545C642.64 89.2614 638.774 89.9148 634.571 89.9148C628.494 89.9148 623.277 88.5208 618.921 85.733C614.587 82.9451 611.462 78.9266 609.545 73.6776C607.628 68.4285 607.269 62.1013 608.467 54.696C609.665 47.5303 612.006 41.4536 615.491 36.4659C618.998 31.4564 623.256 27.6558 628.265 25.0639C633.296 22.4721 638.676 21.1761 644.404 21.1761C648.39 21.1761 651.995 21.7206 655.218 22.8097C658.442 23.8987 661.186 25.4886 663.451 27.5795C665.738 29.6487 667.459 32.1861 668.613 35.1918C669.768 38.1974 670.269 41.6387 670.116 45.5156ZM682.465 33.7543L684.425 22.0909H739.377L737.417 33.7543H716.932L707.784 89H693.801L702.949 33.7543H682.465Z" fill="white"/>
</svg>
