<svg width="304" height="304" viewBox="0 0 304 304" fill="none" xmlns="http://www.w3.org/2000/svg">
<path d="M126.667 278.667V253.333H291.333V278.667H126.667ZM139.333 240.667C139.333 223.567 144.717 208.631 155.483 195.858C166.25 183.086 179.867 175.222 196.333 172.267V164.35C196.333 160.761 197.547 157.753 199.975 155.325C202.403 152.897 205.411 151.683 209 151.683C212.589 151.683 215.597 152.897 218.025 155.325C220.453 157.753 221.667 160.761 221.667 164.35V172.267C237.922 175.222 251.486 183.086 262.358 195.858C273.231 208.631 278.667 223.567 278.667 240.667H139.333ZM172.583 215.017H244.783C240.772 209.317 235.653 204.725 229.425 201.242C223.197 197.758 216.389 196.017 209 196.017C201.4 196.017 194.433 197.758 188.1 201.242C181.767 204.725 176.594 209.317 172.583 215.017ZM12.6665 164.667V25.3333H88.6665V43.7L177.333 19L278.667 50.6667V63.3333C278.667 73.8889 274.972 82.8611 267.583 90.25C260.194 97.6389 251.222 101.333 240.667 101.333H215.333V108.933C215.333 114.211 213.803 119.014 210.742 123.342C207.681 127.669 203.722 130.783 198.867 132.683L113.367 164.667H12.6665ZM37.9998 139.333H63.3332V50.6667H37.9998V139.333ZM88.6665 139.333H108.933L182.4 112.417C184.722 111.572 186.569 110.147 187.942 108.142C189.314 106.136 190 103.867 190 101.333H167.517L130.467 113.367L122.867 89.3L162.45 76H240.667C242.567 76 244.942 75.3139 247.792 73.9417C250.642 72.5694 252.067 70.9333 252.067 69.0333L176.7 45.6L88.6665 69.6667V139.333Z" fill="#222222"/>
</svg>
