<svg width="304" height="304" viewBox="0 0 304 304" fill="none" xmlns="http://www.w3.org/2000/svg">
<path d="M0 228V208.05C0 198.972 4.64444 191.583 13.9333 185.883C23.2222 180.183 35.4667 177.333 50.6667 177.333C53.4111 177.333 56.05 177.386 58.5833 177.492C61.1167 177.597 63.5444 177.861 65.8667 178.283C62.9111 182.717 60.6944 187.361 59.2167 192.217C57.7389 197.072 57 202.139 57 207.417V228H0ZM76 228V207.417C76 200.661 77.8472 194.486 81.5417 188.892C85.2361 183.297 90.4611 178.389 97.2167 174.167C103.972 169.944 112.047 166.778 121.442 164.667C130.836 162.556 141.022 161.5 152 161.5C163.189 161.5 173.481 162.556 182.875 164.667C192.269 166.778 200.344 169.944 207.1 174.167C213.856 178.389 219.028 183.297 222.617 188.892C226.206 194.486 228 200.661 228 207.417V228H76ZM247 228V207.417C247 201.928 246.314 196.756 244.942 191.9C243.569 187.044 241.511 182.506 238.767 178.283C241.089 177.861 243.464 177.597 245.892 177.492C248.319 177.386 250.8 177.333 253.333 177.333C268.533 177.333 280.778 180.131 290.067 185.725C299.356 191.319 304 198.761 304 208.05V228H247ZM102.917 202.667H201.4C199.289 198.444 193.431 194.75 183.825 191.583C174.219 188.417 163.611 186.833 152 186.833C140.389 186.833 129.781 188.417 120.175 191.583C110.569 194.75 104.817 198.444 102.917 202.667ZM50.6667 164.667C43.7 164.667 37.7361 162.186 32.775 157.225C27.8139 152.264 25.3333 146.3 25.3333 139.333C25.3333 132.156 27.8139 126.139 32.775 121.283C37.7361 116.428 43.7 114 50.6667 114C57.8444 114 63.8611 116.428 68.7167 121.283C73.5722 126.139 76 132.156 76 139.333C76 146.3 73.5722 152.264 68.7167 157.225C63.8611 162.186 57.8444 164.667 50.6667 164.667ZM253.333 164.667C246.367 164.667 240.403 162.186 235.442 157.225C230.481 152.264 228 146.3 228 139.333C228 132.156 230.481 126.139 235.442 121.283C240.403 116.428 246.367 114 253.333 114C260.511 114 266.528 116.428 271.383 121.283C276.239 126.139 278.667 132.156 278.667 139.333C278.667 146.3 276.239 152.264 271.383 157.225C266.528 162.186 260.511 164.667 253.333 164.667ZM152 152C141.444 152 132.472 148.306 125.083 140.917C117.694 133.528 114 124.556 114 114C114 103.233 117.694 94.2083 125.083 86.925C132.472 79.6417 141.444 76 152 76C162.767 76 171.792 79.6417 179.075 86.925C186.358 94.2083 190 103.233 190 114C190 124.556 186.358 133.528 179.075 140.917C171.792 148.306 162.767 152 152 152ZM152 126.667C155.589 126.667 158.597 125.453 161.025 123.025C163.453 120.597 164.667 117.589 164.667 114C164.667 110.411 163.453 107.403 161.025 104.975C158.597 102.547 155.589 101.333 152 101.333C148.411 101.333 145.403 102.547 142.975 104.975C140.547 107.403 139.333 110.411 139.333 114C139.333 117.589 140.547 120.597 142.975 123.025C145.403 125.453 148.411 126.667 152 126.667Z" fill="#222222"/>
</svg>
