<svg width="304" height="304" viewBox="0 0 304 304" fill="none" xmlns="http://www.w3.org/2000/svg">
<path d="M140.6 240.667H162.767V224.833C173.322 222.933 182.4 218.817 190 212.483C197.6 206.15 201.4 196.755 201.4 184.3C201.4 175.433 198.867 167.305 193.8 159.917C188.733 152.528 178.6 146.089 163.4 140.6C150.733 136.378 141.972 132.683 137.117 129.517C132.261 126.35 129.833 122.022 129.833 116.533C129.833 111.044 131.786 106.717 135.692 103.55C139.597 100.383 145.244 98.7999 152.633 98.7999C159.389 98.7999 164.667 100.436 168.467 103.708C172.267 106.98 175.011 111.044 176.7 115.9L196.967 107.667C194.644 100.278 190.369 93.8388 184.142 88.3499C177.914 82.861 171 79.7999 163.4 79.1666V63.3333H141.233V79.1666C130.678 81.4888 122.444 86.1333 116.533 93.0999C110.622 100.067 107.667 107.878 107.667 116.533C107.667 126.455 110.569 134.478 116.375 140.6C122.181 146.722 131.311 152 143.767 156.433C157.067 161.289 166.303 165.617 171.475 169.417C176.647 173.217 179.233 178.178 179.233 184.3C179.233 191.267 176.753 196.386 171.792 199.658C166.831 202.93 160.867 204.567 153.9 204.567C146.933 204.567 140.758 202.403 135.375 198.075C129.992 193.747 126.033 187.255 123.5 178.6L102.6 186.833C105.556 196.967 110.147 205.147 116.375 211.375C122.603 217.603 130.678 221.878 140.6 224.2V240.667ZM152 278.667C134.478 278.667 118.011 275.342 102.6 268.692C87.1889 262.042 73.7833 253.017 62.3833 241.617C50.9833 230.217 41.9583 216.811 35.3083 201.4C28.6583 185.989 25.3333 169.522 25.3333 152C25.3333 134.478 28.6583 118.011 35.3083 102.6C41.9583 87.1888 50.9833 73.7833 62.3833 62.3833C73.7833 50.9833 87.1889 41.9583 102.6 35.3083C118.011 28.6583 134.478 25.3333 152 25.3333C169.522 25.3333 185.989 28.6583 201.4 35.3083C216.811 41.9583 230.217 50.9833 241.617 62.3833C253.017 73.7833 262.042 87.1888 268.692 102.6C275.342 118.011 278.667 134.478 278.667 152C278.667 169.522 275.342 185.989 268.692 201.4C262.042 216.811 253.017 230.217 241.617 241.617C230.217 253.017 216.811 262.042 201.4 268.692C185.989 275.342 169.522 278.667 152 278.667ZM152 253.333C180.289 253.333 204.25 243.517 223.883 223.883C243.517 204.25 253.333 180.289 253.333 152C253.333 123.711 243.517 99.7499 223.883 80.1166C204.25 60.4833 180.289 50.6666 152 50.6666C123.711 50.6666 99.75 60.4833 80.1166 80.1166C60.4833 99.7499 50.6666 123.711 50.6666 152C50.6666 180.289 60.4833 204.25 80.1166 223.883C99.75 243.517 123.711 253.333 152 253.333Z" fill="#EEEEEE"/>
</svg>
