<svg width="304" height="304" viewBox="0 0 304 304" fill="none" xmlns="http://www.w3.org/2000/svg">
<path d="M152 278.667C134.689 278.667 118.328 275.342 102.917 268.692C87.5055 262.042 74.0472 252.964 62.5416 241.458C51.0361 229.953 41.9583 216.495 35.3083 201.083C28.6583 185.672 25.3333 169.311 25.3333 152C25.3333 134.478 28.6583 118.064 35.3083 102.758C41.9583 87.4529 51.0361 74.0474 62.5416 62.5418C74.0472 51.0363 87.5055 41.9585 102.917 35.3085C118.328 28.6585 134.689 25.3335 152 25.3335C169.522 25.3335 185.936 28.6585 201.242 35.3085C216.547 41.9585 229.953 51.0363 241.458 62.5418C252.964 74.0474 262.042 87.4529 268.692 102.758C275.342 118.064 278.667 134.478 278.667 152C278.667 169.311 275.342 185.672 268.692 201.083C262.042 216.495 252.964 229.953 241.458 241.458C229.953 252.964 216.547 262.042 201.242 268.692C185.936 275.342 169.522 278.667 152 278.667ZM152 252.7C157.489 245.1 162.239 237.183 166.25 228.95C170.261 220.717 173.533 211.956 176.067 202.667H127.933C130.467 211.956 133.739 220.717 137.75 228.95C141.761 237.183 146.511 245.1 152 252.7ZM119.067 247.633C115.267 240.667 111.942 233.436 109.092 225.942C106.242 218.447 103.867 210.689 101.967 202.667H64.6C70.7222 213.222 78.375 222.406 87.5583 230.217C96.7416 238.028 107.244 243.833 119.067 247.633ZM184.933 247.633C196.756 243.833 207.258 238.028 216.442 230.217C225.625 222.406 233.278 213.222 239.4 202.667H202.033C200.133 210.689 197.758 218.447 194.908 225.942C192.058 233.436 188.733 240.667 184.933 247.633ZM53.8333 177.333H96.9C96.2666 173.111 95.7916 168.942 95.475 164.825C95.1583 160.708 95 156.433 95 152C95 147.567 95.1583 143.292 95.475 139.175C95.7916 135.058 96.2666 130.889 96.9 126.667H53.8333C52.7778 130.889 51.9861 135.058 51.4583 139.175C50.9305 143.292 50.6666 147.567 50.6666 152C50.6666 156.433 50.9305 160.708 51.4583 164.825C51.9861 168.942 52.7778 173.111 53.8333 177.333ZM122.233 177.333H181.767C182.4 173.111 182.875 168.942 183.192 164.825C183.508 160.708 183.667 156.433 183.667 152C183.667 147.567 183.508 143.292 183.192 139.175C182.875 135.058 182.4 130.889 181.767 126.667H122.233C121.6 130.889 121.125 135.058 120.808 139.175C120.492 143.292 120.333 147.567 120.333 152C120.333 156.433 120.492 160.708 120.808 164.825C121.125 168.942 121.6 173.111 122.233 177.333ZM207.1 177.333H250.167C251.222 173.111 252.014 168.942 252.542 164.825C253.069 160.708 253.333 156.433 253.333 152C253.333 147.567 253.069 143.292 252.542 139.175C252.014 135.058 251.222 130.889 250.167 126.667H207.1C207.733 130.889 208.208 135.058 208.525 139.175C208.842 143.292 209 147.567 209 152C209 156.433 208.842 160.708 208.525 164.825C208.208 168.942 207.733 173.111 207.1 177.333ZM202.033 101.333H239.4C233.278 90.7779 225.625 81.5946 216.442 73.7835C207.258 65.9724 196.756 60.1668 184.933 56.3668C188.733 63.3335 192.058 70.564 194.908 78.0585C197.758 85.5529 200.133 93.3113 202.033 101.333ZM127.933 101.333H176.067C173.533 92.0446 170.261 83.2835 166.25 75.0502C162.239 66.8168 157.489 58.9002 152 51.3002C146.511 58.9002 141.761 66.8168 137.75 75.0502C133.739 83.2835 130.467 92.0446 127.933 101.333ZM64.6 101.333H101.967C103.867 93.3113 106.242 85.5529 109.092 78.0585C111.942 70.564 115.267 63.3335 119.067 56.3668C107.244 60.1668 96.7416 65.9724 87.5583 73.7835C78.375 81.5946 70.7222 90.7779 64.6 101.333Z" fill="#EEEEEE"/>
</svg>
