<svg width="304" height="304" viewBox="0 0 304 304" fill="none" xmlns="http://www.w3.org/2000/svg">
<path d="M150.417 253.333C151.261 253.333 152.106 253.122 152.95 252.7C153.794 252.278 154.428 251.856 154.85 251.433L258.717 147.567C261.25 145.033 263.097 142.183 264.258 139.017C265.419 135.85 266 132.683 266 129.517C266 126.139 265.419 122.92 264.258 119.858C263.097 116.797 261.25 114.106 258.717 111.783L204.883 57.9502C202.561 55.4168 199.869 53.5696 196.808 52.4085C193.747 51.2474 190.528 50.6668 187.15 50.6668C183.983 50.6668 180.817 51.2474 177.65 52.4085C174.483 53.5696 171.633 55.4168 169.1 57.9502L165.617 61.4335L189.05 85.1835C192.217 88.1391 194.539 91.5168 196.017 95.3168C197.494 99.1168 198.233 103.128 198.233 107.35C198.233 116.217 195.225 123.658 189.208 129.675C183.192 135.692 175.75 138.7 166.883 138.7C162.661 138.7 158.597 137.961 154.692 136.483C150.786 135.006 147.356 132.789 144.4 129.833L120.65 106.4L65.2333 161.817C64.6 162.45 64.125 163.136 63.8083 163.875C63.4916 164.614 63.3333 165.406 63.3333 166.25C63.3333 167.939 63.9666 169.47 65.2333 170.842C66.5 172.214 67.9778 172.9 69.6666 172.9C70.5111 172.9 71.3555 172.689 72.2 172.267C73.0444 171.845 73.6778 171.422 74.1 171L117.167 127.933L134.9 145.667L92.15 188.733C91.5166 189.367 91.0416 190.053 90.725 190.792C90.4083 191.531 90.25 192.322 90.25 193.167C90.25 194.856 90.8833 196.333 92.15 197.6C93.4166 198.867 94.8944 199.5 96.5833 199.5C97.4278 199.5 98.2722 199.289 99.1166 198.867C99.9611 198.445 100.594 198.022 101.017 197.6L144.083 154.85L161.817 172.583L119.067 215.65C118.433 216.072 117.958 216.706 117.642 217.55C117.325 218.395 117.167 219.239 117.167 220.083C117.167 221.772 117.8 223.25 119.067 224.517C120.333 225.783 121.811 226.417 123.5 226.417C124.344 226.417 125.136 226.258 125.875 225.942C126.614 225.625 127.3 225.15 127.933 224.517L171 181.767L188.733 199.5L145.667 242.567C145.033 243.2 144.558 243.886 144.242 244.625C143.925 245.364 143.767 246.156 143.767 247C143.767 248.689 144.453 250.167 145.825 251.433C147.197 252.7 148.728 253.333 150.417 253.333ZM150.1 278.667C142.289 278.667 135.375 276.081 129.358 270.908C123.342 265.736 119.806 259.245 118.75 251.433C111.572 250.378 105.556 247.422 100.7 242.567C95.8444 237.711 92.8889 231.695 91.8333 224.517C84.6555 223.461 78.6916 220.453 73.9416 215.492C69.1916 210.531 66.2889 204.567 65.2333 197.6C57.2111 196.545 50.6666 193.061 45.6 187.15C40.5333 181.239 38 174.272 38 166.25C38 162.028 38.7916 157.964 40.375 154.058C41.9583 150.153 44.2278 146.722 47.1833 143.767L120.65 70.6168L162.133 112.1C162.556 112.733 163.189 113.208 164.033 113.525C164.878 113.842 165.722 114 166.567 114C168.467 114 170.05 113.42 171.317 112.258C172.583 111.097 173.217 109.567 173.217 107.667C173.217 106.822 173.058 105.978 172.742 105.133C172.425 104.289 171.95 103.656 171.317 103.233L126.033 57.9502C123.711 55.4168 121.019 53.5696 117.958 52.4085C114.897 51.2474 111.678 50.6668 108.3 50.6668C105.133 50.6668 101.967 51.2474 98.8 52.4085C95.6333 53.5696 92.7833 55.4168 90.25 57.9502L45.6 102.917C43.7 104.817 42.1166 107.033 40.85 109.567C39.5833 112.1 38.7389 114.633 38.3166 117.167C37.8944 119.7 37.8944 122.286 38.3166 124.925C38.7389 127.564 39.5833 130.045 40.85 132.367L22.4833 150.733C18.8944 145.878 16.2555 140.547 14.5666 134.742C12.8778 128.936 12.2444 123.078 12.6666 117.167C13.0889 111.256 14.5666 105.503 17.1 99.9085C19.6333 94.3141 23.1166 89.3002 27.55 84.8668L72.2 40.2168C77.2666 35.3613 82.9139 31.6668 89.1416 29.1335C95.3694 26.6002 101.756 25.3335 108.3 25.3335C114.844 25.3335 121.231 26.6002 127.458 29.1335C133.686 31.6668 139.228 35.3613 144.083 40.2168L147.567 43.7002L151.05 40.2168C156.117 35.3613 161.764 31.6668 167.992 29.1335C174.219 26.6002 180.606 25.3335 187.15 25.3335C193.694 25.3335 200.081 26.6002 206.308 29.1335C212.536 31.6668 218.078 35.3613 222.933 40.2168L276.45 93.7335C281.306 98.5891 285 104.183 287.533 110.517C290.067 116.85 291.333 123.289 291.333 129.833C291.333 136.378 290.067 142.764 287.533 148.992C285 155.22 281.306 160.761 276.45 165.617L172.583 269.167C169.628 272.122 166.197 274.445 162.292 276.133C158.386 277.822 154.322 278.667 150.1 278.667Z" fill="#EEEEEE"/>
</svg>
